<?xml version="1.0" standalone="no"?>
<!DOCTYPE svg PUBLIC "-//W3C//DTD SVG 20010904//EN"
 "http://www.w3.org/TR/2001/REC-SVG-20010904/DTD/svg10.dtd">
<svg version="1.0" xmlns="http://www.w3.org/2000/svg"
 width="128.000000pt" height="128.000000pt" viewBox="0 0 128.000000 128.000000"
 preserveAspectRatio="xMidYMid meet">

<g transform="translate(0.000000,128.000000) scale(0.100000,-0.100000)"
fill="#ffffff" stroke="none">
<path d="M557 1270 c-154 -39 -269 -173 -284 -332 -10 -111 49 -252 130 -310
l29 -21 -68 -32 c-132 -63 -232 -162 -299 -298 -35 -72 -64 -182 -65 -244 0
-33 0 -33 50 -33 48 0 50 1 50 28 0 53 40 186 73 241 41 69 129 157 198 198
65 39 191 73 269 73 78 0 204 -34 269 -73 69 -41 157 -129 198 -198 33 -55 73
-188 73 -241 0 -27 2 -28 50 -28 50 0 50 0 50 33 -1 62 -30 172 -65 244 -67
136 -167 235 -299 298 l-68 32 29 21 c44 31 99 118 119 186 47 167 -40 352
-201 427 -70 33 -172 45 -238 29z m177 -110 c100 -38 176 -146 176 -250 0
-104 -76 -212 -176 -250 -69 -25 -119 -25 -188 0 -100 38 -176 146 -176 250 0
102 76 212 173 249 67 26 123 26 191 1z"/>
</g>
</svg>
