<?xml version="1.0" standalone="no"?>
<!DOCTYPE svg PUBLIC "-//W3C//DTD SVG 20010904//EN"
 "http://www.w3.org/TR/2001/REC-SVG-20010904/DTD/svg10.dtd">
<svg version="1.0" xmlns="http://www.w3.org/2000/svg"
 width="128.000000pt" height="128.000000pt" viewBox="0 0 128.000000 128.000000"
 preserveAspectRatio="xMidYMid meet">

<g transform="translate(0.000000,128.000000) scale(0.100000,-0.100000)"
fill="#ffffff" stroke="none">
<path d="M501 1265 c-178 -39 -348 -172 -429 -336 -127 -256 -81 -540 118
-739 251 -252 649 -252 900 0 252 251 252 649 0 900 -155 156 -375 221 -589
175z m279 -90 c93 -25 180 -75 250 -145 70 -70 120 -157 145 -250 19 -71 19
-209 0 -280 -51 -190 -205 -344 -395 -395 -71 -19 -209 -19 -280 0 -190 51
-344 205 -395 395 -19 71 -19 209 0 280 50 188 204 343 391 395 66 18 216 18
284 0z"/>
<path d="M612 1078 c-9 -9 -12 -77 -12 -245 l0 -233 184 0 c154 0 187 3 200
16 22 21 20 40 -6 58 -18 13 -52 16 -160 16 l-138 0 0 188 c0 192 -4 212 -40
212 -9 0 -21 -5 -28 -12z"/>
</g>
</svg>
